<svg xmlns="http://www.w3.org/2000/svg" width="512" height="512"><path d="M491.318 235.318H20.682C9.26 235.318 0 244.577 0 256s9.26 20.682 20.682 20.682h470.636c11.423 0 20.682-9.26 20.682-20.682s-9.26-20.682-20.682-20.682zm0-156.878H20.682C9.26 78.44 0 87.7 0 99.12s9.26 20.682 20.682 20.682h470.636c11.423 0 20.682-9.26 20.682-20.682s-9.26-20.682-20.682-20.682zm0 313.757H20.682C9.26 392.197 0 401.456 0 412.88s9.26 20.682 20.682 20.682h470.636c11.423 0 20.682-9.26 20.682-20.682s-9.26-20.682-20.682-20.682z" transform="matrix(.793614 0 0 .793614 52.8347 52.8347)"/></svg>